<svg width="40" height="40" viewBox="0 0 30 30" fill="none" xmlns="http://www.w3.org/2000/svg">
<path fill-rule="evenodd" clip-rule="evenodd" d="M11.25 3.12219C9.52411 3.12219 8.125 4.5213 8.125 6.24719C8.125 7.97308 9.52411 9.37219 11.25 9.37219C12.9759 9.37219 14.375 7.97308 14.375 6.24719C14.375 4.5213 12.9759 3.12219 11.25 3.12219ZM5.625 8.12219C3.89911 8.12219 2.5 9.5213 2.5 11.2472C2.5 12.9731 3.89911 14.3722 5.625 14.3722C7.35089 14.3722 8.75 12.9731 8.75 11.2472C8.75 9.5213 7.35089 8.12219 5.625 8.12219ZM15.625 6.24719C15.625 4.5213 17.0241 3.12219 18.75 3.12219C20.4759 3.12219 21.875 4.5213 21.875 6.24719C21.875 7.97308 20.4759 9.37219 18.75 9.37219C17.0241 9.37219 15.625 7.97308 15.625 6.24719ZM24.375 8.12219C22.6491 8.12219 21.25 9.5213 21.25 11.2472C21.25 12.9731 22.6491 14.3722 24.375 14.3722C26.1009 14.3722 27.5 12.9731 27.5 11.2472C27.5 9.5213 26.1009 8.12219 24.375 8.12219ZM20.5547 16.6292C20.9167 17.0559 21.2846 17.4895 21.675 17.9472C21.7724 18.0446 21.8711 18.1426 21.9706 18.2413C23.5434 19.8029 25.302 21.5489 24.9375 23.9472C24.575 25.2097 23.6625 26.4847 22.025 26.8472C21.6051 26.9277 20.7615 26.8176 19.671 26.6753C18.392 26.5084 16.7733 26.2972 15.1 26.2972H14.875C13.2158 26.2972 11.6102 26.5085 10.3363 26.6761C9.23019 26.8217 8.37409 26.9343 7.95 26.8472C6.3125 26.4847 5.4 25.2222 5.0375 23.9472C4.68497 21.5617 6.44239 19.817 8.01469 18.2561C8.11491 18.1566 8.21438 18.0578 8.3125 17.9597C9.0176 17.1424 9.64566 16.4022 10.2922 15.6402C10.6542 15.2135 11.0221 14.7799 11.4125 14.3222C12 13.6472 12.725 12.9722 13.6 12.6722C13.7375 12.6222 13.875 12.5847 14.0125 12.5597C14.3375 12.4972 14.675 12.4972 15 12.4972C15.325 12.4972 15.6625 12.4972 15.975 12.5472C16.1125 12.5722 16.25 12.6097 16.3875 12.6597C17.2625 12.9597 18 13.6347 18.575 14.3097C19.2801 15.127 19.9082 15.8672 20.5547 16.6292Z" fill="black" fill-opacity="0.54"/>
</svg>
